<?xml version="1.0" encoding="UTF-8"?>
<!-- Created with Inkscape (http://www.inkscape.org/) -->
<svg width="300" height="150" version="1.1" viewBox="0 0 79.375 39.688" xmlns="http://www.w3.org/2000/svg">
 <g transform="matrix(.72214 0 0 .72214 1.4745 .73725)" fill="#e6edf3" stroke-width=".92133" aria-label="qiJ1`C">
  <path d="m28.489 33.467-6.3161-0.16195q-2.1774 0-3.6529 0.16195h-0.10797q-0.62982 8.1336-1.4756 11.247-0.55784 1.9794-1.5296 3.509-1.0617 1.6915-2.3573 2.6812-0.6658 0.50385-1.0617 0.50385-0.25193 0-0.25193-0.25193 0-0.39588 0.97172-1.6195 0.43187-0.53984 0.52185-0.73778 2.3573-4.5167 2.3573-22.529 0-3.8329-0.3239-4.7326-0.26992-0.71979-0.95372-0.71979-0.79177 0-1.4396 0.52185-0.48586 0.37789-0.84575 0.37789-0.17995 0-0.25193-0.25193 0-0.52185 0.95372-1.5655 1.5116-1.6555 3.275-2.0154 0.35989-0.07198 0.73778-0.07198 1.2956 0 1.6555 1.4936 0.19794 0.79177 0.21594 2.4113l0.01799 1.4216q1.2956-1.5475 3.473-3.1311 3.491-2.5013 6.1362-2.5013 2.6092 0 4.1928 1.9794 1.3316 1.6735 1.3316 3.9768 0 3.581-3.1131 6.928l-0.3419 0.37789h0.50385q0.12596 0 0.26992 0 2.9511 0 4.1928-0.93573 0.55784-0.41388 0.62982-0.44987 0.19794-0.08997 0.41388-0.08997 0.28792 0 0.28792 0.28792 0 0.48586-0.84575 1.4216-1.4576 1.6195-3.545 2.1414-1.2776 0.32391-3.7249 0.32391zm-4.0668-2.8612 2.4653 0.05398q2.8072 0 3.581-2.7712 0.01799-0.10797 0.08997-0.35989 0.17995-0.73778 0.17995-1.5116 0-2.6272-1.7815-4.2648-1.1877-1.0797-2.6272-1.2236-0.19794-0.01799-0.41388-0.01799-1.9974 0-4.0488 1.3496-2.3933 1.5835-3.0591 3.9948-0.16195 0.55784-0.19794 1.1517 0 0.28792-0.08997 3.9768l0.37789-0.03599q2.7712-0.3419 5.5244-0.3419z"/>
  <path d="m38.044 27.061q0-2.5732 1.8894-5.2545 1.9614-2.7892 4.8586-4.0848 1.8894-0.84575 3.8329-0.84575 2.5013 0 4.4987 1.4756 2.0334 1.4936 2.5732 4.0128 0.14396 0.6658 0.14396 1.3676 0 3.2211-3.419 8.3675-0.93573 1.3856-4.0668 5.6144-2.9511 3.9408-3.8149 5.8483-0.59383 1.3136-0.59383 2.2673 0 1.0977 0.62982 1.7815 0.25193 0.28792 0.25193 0.43187 0 0.48586-0.91773 1.5296-1.0977 1.2056-1.8355 1.2056-0.35989 0-0.77377-0.84575-0.37789-0.79177-0.37789-1.5655 0-2.1234 2.1594-5.5784 1.2596-2.0154 3.7789-5.3804 4.2108-5.6144 5.3084-8.2056 0.64781-1.5475 0.64781-2.9511 0-2.8252-2.1774-4.6786-1.6015-1.3676-3.7069-1.6375-0.25193-0.03599-0.80976-0.03599-1.4036 0-2.7712 0.50385-1.0077 0.39588-1.4036 0.97172-0.88174 1.2596-0.88174 3.0591 0 1.1517 0.75578 2.0334 0.57583 0.6838 0.6838 0.91773 0.19794 0.37789 0.19794 0.82776 0 0.95372-0.75578 1.7275-0.6838 0.7018-1.6555 0.7018-1.2416 0-1.8715-1.4756-0.37789-0.89974-0.37789-2.1054z"/>
  <path d="m48.139 4.8017q0-0.46786 0.91773-1.4036 1.5116-1.5835 3.2391-1.8355 0.26992-0.053984 0.55784-0.053984 1.7815 0 2.6272 1.3316 0.46786 0.70179 0.46786 1.6195 0 3.2391-5.0925 6.0462-1.8535 1.0257-5.2545 2.5013-1.3136 0.57583-1.5116 0.57583-0.44987 0-0.44987-0.37789 0-0.46786 1.8894-1.4936l3.437-1.8355q3.545-2.0514 3.9768-3.6709 0.07198-0.25193 0.07198-0.50385 0-1.0977-1.4036-1.5296-0.46786-0.14396-0.82776-0.14396-0.79177 0-1.4756 0.55784-0.52185 0.43187-0.93573 0.44987-0.23393 0-0.23393-0.23393z"/>
  <path d="m65.45 23.138q1.3496-1.6195 3.563-3.2031 3.437-2.4473 6.1362-2.4473 2.1594 0 3.7429 1.6375 1.1877 1.2236 1.6735 3.1311 0.19794 0.80976 0.19794 1.7095 0 2.8072-2.0514 5.6323-1.7275 2.3753-3.9948 3.491-1.3856 0.6838-2.7892 0.6838-2.0514 0-2.5373-1.2236-0.12596-0.32391-0.12596-0.71979 0-1.3676 1.2056-2.0514 0.59383-0.3239 1.2056-0.3239 0.64781 0 1.4396 0.61182 0.77377 0.59383 1.2416 0.6658 0.14396 0.018 0.28792 0.018 1.0437 0 1.7995-0.52185 0.14396-0.08997 0.21594-0.17995 0.97172-1.3136 1.0797-3.275v-0.25193q0-2.6272-1.6555-4.4087l-0.16195-0.17995q-1.4216-1.4216-3.1851-1.4216-2.0694 0-4.2108 1.4936-1.6735 1.1517-2.3933 2.5912-0.6658 1.3316-0.71979 3.0051 0 0.23393 0 0.50385-0.17995 15.403-3.1851 20.118-1.0617 1.6915-2.3573 2.6812-0.6658 0.50385-1.0617 0.50385-0.25193 0-0.25193-0.25193 0-0.39588 0.97172-1.6195 0.43187-0.53984 0.52185-0.73778 2.3573-4.5167 2.3573-22.529 0-3.8329-0.3239-4.7326-0.26992-0.71979-0.95372-0.71979-0.79177 0-1.4396 0.52185-0.48586 0.37789-0.84575 0.37789-0.17995 0-0.25193-0.25193 0-0.52185 0.95372-1.5655 1.5116-1.6555 3.275-2.0154 0.35989-0.07198 0.73778-0.07198 1.2956 0 1.6555 1.4936 0.19794 0.79177 0.21594 2.4113z"/>
  <path d="m83.985 21.447q0-0.75578 1.2776-1.9074 1.5296-1.3856 3.0951-1.6735 0.28792-0.05398 0.55784-0.05398 1.5655 0 1.8355 2.2493 0.05398 0.30591 0.05398 1.3316 0 5.9023-0.16195 7.1079-0.3419 2.4113-2.1774 4.2108-1.0077 0.98971-1.7095 1.0617-0.25193 0-0.25193-0.23393 0-0.01799 0-0.05398 0-0.26992 0.35989-0.77377 0.6838-0.95372 0.82776-2.3573 0.08997-1.2596 0.08997-6.5321 0-2.9871-1.2596-2.9871-0.80976 0-1.4396 0.48586-0.46786 0.37789-0.84575 0.39588-0.25193 0-0.25193-0.26992z"/>
  <path d="m86.108 5.4135q0-0.21594 1.3316-1.5116 0.91773-0.89974 1.0977-0.89974 0.25193 0 1.5475 1.3136 0.88174 0.91773 0.88174 1.0977 0 0.25193-1.2956 1.5296-0.93573 0.91773-1.1337 0.91773-0.23393 0-1.5296-1.3496-0.89974-0.91773-0.89974-1.0977zm-3.1311 4.5527q0-0.25193 1.3496-1.5475 0.91773-0.88174 1.0797-0.88174 0.25193 0 1.5475 1.3316 0.88174 0.91773 0.88174 1.0977 0 0.23393-1.2596 1.4756-0.95372 0.95372-1.1697 0.95372-0.26992 0-1.5655-1.3496-0.86375-0.89974-0.86375-1.0797zm6.2622 0q0-0.21594 1.3316-1.5116 0.91773-0.91773 1.0977-0.91773 0.26992 0 1.6015 1.3856 0.82776 0.88174 0.82776 1.0437 0 0.25193-1.3136 1.5296-0.91773 0.89974-1.0977 0.89974-0.30591 0-1.6555-1.4396-0.79177-0.84575-0.79177-0.98971z"/>
 </g>
</svg>
